<svg xmlns="http://www.w3.org/2000/svg" width="64" height="64" viewBox="0 0 64 64"><path d="M8.2 0h47.6C60.3 0 64 3.7 64 8.2v47.6C64 60.3 60.3 64 55.8 64H8.2C3.7 64 0 60.3 0 55.8V8.2C0 3.7 3.7 0 8.2 0L8.2 0zM46.6 7.1c-1.6 0-2.9 1.3-2.9 2.9v6.9c0 1.6 1.3 2.9 2.9 2.9h7.2c1.6 0 2.9-1.3 2.9-2.9V10c0-1.6-1.3-2.9-2.9-2.9H46.6L46.6 7.1zM56.8 27.1h-5.6c0.5 1.7 0.8 3.6 0.8 5.5 0 10.6-8.9 19.3-19.9 19.3 -11 0-19.9-8.6-19.9-19.3 0-1.9 0.3-3.8 0.8-5.5H7.1V54.1c0 1.4 1.1 2.5 2.5 2.5h44.6c1.4 0 2.5-1.1 2.5-2.5V27.1L56.8 27.1zM32.1 19.4c-7.1 0-12.9 5.6-12.9 12.5s5.8 12.5 12.9 12.5c7.1 0 12.9-5.6 12.9-12.5S39.2 19.4 32.1 19.4z" fill="#101010"/></svg>
