<svg xmlns="http://www.w3.org/2000/svg" width="64" height="64" viewBox="-203 36.5 64 64"><path d="M-171.5 71.5c0 0.1 0 0.3-0.1 0.5 -0.1 0.5-0.2 1-0.1 1.6 0 0.2 0.2 0.7 0.4 0.7 0.1 0.1 0.3 0 0.5 0 0.1 0 0.3-0.1 0.3-0.2 0.3-0.3 0.3-1.3 0.2-2 0-0.1-0.1-0.3-0.1-0.4 -0.1-0.5-0.2-1.5-0.4-1.6 -0.4-0.1-0.4 0.6-0.4 0.9C-171.4 71.2-171.5 71.4-171.5 71.5" fill="#434343"/><path d="M-176.2 65.8c0.1-0.4-0.6-0.3-0.8-0.3 -0.4 0-1.2 0-1.6 0 -0.1 0-0.3 0.1-0.5 0.1 -0.3 0.1-0.7 0-0.9 0.1 -0.2 0-0.4 0.2-0.6 0.3 -0.2 0.1-0.5 0.1-0.7 0.2 -0.1 0-0.1 0.1-0.2 0.2 -0.3 0.2-0.7 0.4-1 0.5 -0.2 0.1-0.3 0.3-0.4 0.4 -0.2 0.2-0.5 0.3-0.6 0.5 0 0 0 0.2-0.1 0.3 0 0.1-0.2 0.1-0.2 0.2 -0.1 0.1-0.1 0.3-0.2 0.5 -0.2 0.5-0.1 1.1 0.5 1 0.4 0 0.7-0.5 0.9-0.8 0.3-0.4 0.6-0.7 0.9-1.1 0.2-0.2 0.4-0.5 0.6-0.6 0.2-0.1 0.3-0.1 0.4-0.2 0.2-0.1 0.3-0.3 0.5-0.4 0.1 0 0.2 0 0.3-0.1 0.3-0.1 0.6-0.3 0.9-0.4 0.5-0.1 1-0.3 1.4-0.3C-177.1 65.9-176.3 66.1-176.2 65.8" fill="#434343"/><path d="M-158.3 68.1c-0.1-0.2-0.1-0.3-0.1-0.3 -0.1-0.1-0.2-0.1-0.3-0.2 -0.2-0.2-0.2-0.3-0.4-0.4 -0.1 0-0.2-0.1-0.2-0.2 -0.3-0.2-0.6-0.4-1-0.6 -0.5-0.2-1.1-0.5-1.6-0.6 -0.2 0-0.4 0-0.5 0 -0.4-0.1-0.7-0.2-1-0.2 -0.4 0-0.9-0.1-1.3-0.1 -0.4 0-1.1 0-0.9 0.4 0.1 0.3 0.7 0.2 0.9 0.2 0.3 0 0.3 0.1 0.5 0.1 0.4 0.1 0.6 0 0.8 0.1 0.4 0.1 0.6 0.1 0.9 0.2 0.2 0.1 0.5 0.1 0.6 0.2 0.3 0.1 0.6 0.3 0.8 0.4 0.3 0.2 0.4 0.3 0.6 0.5 0.1 0.1 0.3 0.2 0.4 0.3 0.1 0.1 0.1 0.2 0.1 0.3 0.1 0.2 0.4 0.4 0.7 0.7 0.3 0.4 0.5 1 1.1 0.8 0.4-0.1 0.5-0.5 0.3-1C-158 68.4-158.2 68.2-158.3 68.1" fill="#434343"/><path d="M-170.3 70.1c0.1 0.2 0.2 0.3 0.2 0.5 0 0.1 0.1 0.1 0.1 0.1 0.4 0.7 0.8 1.1 1.5 1.4 0.3 0.1 0.5 0.3 0.7 0.3 0.4 0.1 1.1 0.1 1.4 0 0 0 0.1 0 0.1 0 0.8-0.2 1.7-0.8 2.2-1.5 0.2-0.3 0.2-0.5 0.3-1 0.1-0.4 0.1-0.6 0-1 -0.1-0.5-0.2-0.6-0.5-1 -0.3-0.3-0.4-0.5-0.7-0.7 -0.4-0.3-1.2-0.4-1.8-0.2 -0.1 0-0.2 0.1-0.3 0.2 -0.2 0.1-0.3 0.1-0.4 0.2 -0.2 0.2-0.3 0.5-0.4 0.7 0 0.4 0.2 0.6 0.4 0.7 0.1 0.1 0.1 0.2 0.3 0.2 0.3 0.1 0.4-0.1 0.6-0.2 0.2-0.1 0.4-0.2 0.4-0.4 0.1-0.3-0.2-0.8-0.1-0.9 0.1-0.1 0.4 0 0.4 0 0.4 0.1 0.8 0.4 0.9 0.7 0.2 0.4 0.2 0.9 0.2 1.3 -0.2 1.1-1.1 1.5-2.1 1.6 -0.2 0-0.4 0.1-0.6 0 -0.5 0-1.2-0.4-1.5-0.7 -0.1-0.1-0.3-0.4-0.4-0.6 -0.1-0.2-0.3-0.5-0.4-0.7 0-0.1 0-0.3 0-0.4 -0.1-0.6-0.1-1.4 0.1-1.9 0.1-0.2 0.2-0.5 0.3-0.6 0.2-0.3 0.4-0.4 0.6-0.6 0.1-0.1 0.2-0.2 0.3-0.3 0.1-0.1 0.3-0.2 0.4-0.3 0.2-0.2 0.6-0.3 0.8-0.4 0.4-0.1 0.6-0.1 1.1-0.2 0.1 0 0.2-0.1 0.4-0.1 0.8-0.1 1.7-0.1 2.5 0 0.1 0 0.2 0.1 0.3 0.1 0.1 0 0.3 0 0.4 0 0.5 0 0.9 0.1 1.3 0.2 0.2 0 0.4 0.1 0.6 0.1 0.2 0 0.4 0 0.5 0 0.3 0 0.6 0.2 1 0.3 0.1 0 0.3 0 0.5 0 0.2 0 0.4 0.1 0.6 0.2 0.2 0.1 0.4 0.1 0.6 0.2 0.5 0.1 1.2 0.2 1.6 0.4 0.3 0.1 0.7 0.2 1.1 0.3 0.5 0.1 1 0.3 1.4 0.4 0.1 0 0.3 0 0.4 0 0.1 0 0.2 0.1 0.3 0.1 0.5 0.1 1 0.2 1.5 0.3 0.2 0.1 0.5 0.2 0.7 0.2 0.2 0.1 0.5 0.1 0.7 0.1 0.5 0.1 0.9 0.3 1.4 0.4 0.3 0.1 0.5 0 0.8 0.1 0.2 0 0.3 0.1 0.5 0.2 1.3 0.3 3.1 0.4 4.3 0.2 0.6-0.1 1-0.2 1.5-0.4 0.5-0.2 0.9-0.5 1.3-0.8 0.2-0.1 0.3-0.2 0.4-0.4 0.5-0.6 1-1.9 0.7-3 0-0.1-0.1-0.2-0.2-0.3 -0.1-0.1-0.1-0.3-0.2-0.4 -0.3-0.4-0.7-0.6-1.2-0.7 -0.4 0-0.7 0.1-0.9 0.2 -0.2 0.1-0.6 0.4-0.7 0.7 -0.2 0.6 0.1 1.2 0.4 1.4 0.2 0.1 0.2 0.2 0.4 0.1 0.5 0 0.7-0.8 0.3-1.2 -0.1-0.1-0.5-0.1-0.5-0.3 0-0.1 0.6-0.2 0.7-0.2 0.9 0.1 1.4 1.1 1 2.1 -0.1 0.2-0.2 0.3-0.3 0.4 -0.2 0.3-0.2 0.4-0.5 0.6 -0.7 0.5-1.6 0.7-2.5 0.8 -0.6 0.1-1.1 0.1-1.6 0 -0.7-0.1-1.3-0.1-2-0.3 -1.5-0.3-2.8-0.6-4.1-0.9 -1.3-0.4-2.8-0.7-3.9-1.1 -0.2-0.1-0.4-0.1-0.7-0.2 -0.4-0.1-0.7-0.2-1.1-0.3 -0.5-0.1-0.9-0.2-1.3-0.3 0 0-0.1-0.1-0.1-0.1 -0.1 0-0.2 0-0.3 0 -0.1 0-0.3-0.1-0.4-0.1 -0.2 0-0.3 0-0.5 0 -0.1 0-0.3-0.1-0.4-0.1 -0.1 0-0.3 0-0.4 0 -0.3 0-0.5-0.1-0.7-0.1 -0.5-0.1-1-0.1-1.5-0.2 -0.6-0.1-1.2 0-1.8-0.1 -0.1 0-0.2-0.1-0.3-0.1 -0.1 0-0.2 0.1-0.3 0.1 -0.1 0-0.3 0-0.4 0 -0.5 0-0.9 0.1-1.3 0.2 -0.4 0.1-0.8 0.2-1.1 0.4 -0.2 0.1-0.4 0.1-0.6 0.2 -0.1 0.1-0.4 0.3-0.5 0.4 -0.1 0-0.2 0-0.2 0.1 -0.2 0.2-0.5 0.4-0.7 0.6 -0.1 0.1-0.1 0.3-0.2 0.4 -0.2 0.3-0.3 0.4-0.4 0.7 0 0.1-0.1 0.2-0.1 0.3 -0.2 0.4-0.2 0.7-0.3 1.2 0 0.2-0.1 0.4-0.1 0.6 0 0.1 0.1 0.3 0.1 0.4C-170.5 69.4-170.5 69.7-170.3 70.1" fill="#434343"/><path d="M-202.4 66.6c0.3 0.4 0.4 0.5 0.7 0.8 0.2 0.2 0.4 0.3 0.6 0.4 0.4 0.3 0.8 0.4 1.3 0.5 0.4 0.1 0.7 0.2 1.1 0.3 0.6 0.1 1.4 0.1 1.9 0 0.4 0 0.7 0 1.1-0.1 0.3 0 0.6-0.2 0.9-0.2 1.5-0.3 3.1-0.7 4.4-1 0.1 0 0.1-0.1 0.2-0.1 0.5-0.1 1-0.1 1.4-0.3 0.1-0.1 0.2-0.2 0.4-0.2 0.1 0 0.2 0 0.3 0 0.2 0 0.4-0.1 0.6-0.1 0.2-0.1 0.4-0.1 0.6-0.2 0.1 0 0.2 0 0.4 0 0.1 0 0.2-0.1 0.3-0.1 0.1 0 0.3 0 0.4 0 0.3-0.1 0.6-0.2 0.8-0.3 0.3-0.1 0.6-0.2 0.9-0.2 0.3-0.1 0.6-0.1 0.9-0.1 0.3-0.1 0.6-0.2 0.9-0.3 0.3-0.1 0.6 0 0.8-0.1 0.5-0.1 0.9-0.2 1.4-0.2 0.6-0.1 1.1-0.1 1.7-0.2 0.8 0 1.6-0.1 2.4 0 0.6 0.1 1.3 0.3 1.7 0.4 0.2 0.1 0.3 0.2 0.5 0.4 0.2 0.1 0.4 0.2 0.5 0.3 0.2 0.1 0.4 0.4 0.5 0.5 0.5 0.6 0.7 1.5 0.6 2.5 0 0.2-0.1 0.7-0.2 0.8 -0.1 0.2-0.2 0.2-0.3 0.4 -0.1 0.1-0.1 0.3-0.2 0.4 0 0.1-0.2 0.1-0.3 0.2 -0.1 0.1-0.1 0.2-0.2 0.3 -0.1 0-0.2 0.1-0.3 0.1 -0.1 0.1-0.2 0.1-0.3 0.2 -0.5 0.2-1.6 0.2-2.1 0 -0.5-0.2-1-0.5-1.1-0.9 -0.3-0.6-0.2-1.7 0.2-2.1 0.3-0.4 0.5-0.4 1.2-0.5 -0.1 0.4-0.3 0.5-0.2 0.9 0.1 0.3 0.7 0.6 1.1 0.6 0.4-0.1 0.7-0.5 0.7-1 -0.1-0.4-0.6-0.9-0.9-1 -0.3-0.2-1-0.3-1.4-0.2 -0.1 0-0.3 0.2-0.4 0.2 -0.3 0.2-0.5 0.2-0.6 0.4 -0.1 0.1-0.1 0.2-0.1 0.3 -0.1 0.2-0.3 0.3-0.4 0.4 -0.1 0.1-0.1 0.3-0.2 0.4 -0.2 0.5-0.2 0.8-0.1 1.2 0 0.1 0 0.3 0 0.4 0 0 0.1 0.1 0.1 0.2 0 0.1 0 0.2 0 0.3 0.1 0.1 0.2 0.2 0.4 0.4 0.1 0.1 0.2 0.3 0.3 0.4 0.1 0.1 0.2 0.1 0.4 0.2 0.1 0.1 0.2 0.2 0.3 0.3 0.1 0.1 0.3 0.1 0.4 0.1 0.4 0.2 1 0.3 1.7 0.2 0.2 0 0.5-0.1 0.7-0.2 0.5-0.1 0.6-0.2 0.9-0.4 0.3-0.2 0.4-0.3 0.6-0.5 0.1-0.1 0.2-0.2 0.3-0.3 0.5-0.6 0.8-1.5 0.9-2.5 0-0.4-0.1-0.7-0.1-0.9 0-0.2 0-0.4-0.1-0.5 0-0.1-0.1-0.2-0.2-0.4 -0.1-0.2-0.1-0.4-0.1-0.5 0 0-0.1-0.1-0.2-0.2 -0.2-0.2-0.3-0.5-0.5-0.7 -0.3-0.4-0.7-0.7-1.1-1 -0.3-0.2-0.5-0.3-0.8-0.4 -0.1 0-0.1 0-0.2-0.1 0 0-0.1-0.1-0.2-0.1 -0.1 0-0.3 0-0.4 0 -0.2 0-0.3-0.1-0.4-0.1 -0.8-0.2-1.6-0.3-2.5-0.2 -0.1 0-0.2 0.1-0.3 0.1 -0.1 0-0.3-0.1-0.4 0 -0.2 0-0.3 0.1-0.5 0.1 -0.5 0.1-1.1 0.1-1.7 0.1 -0.1 0-0.3 0.1-0.4 0.1 -0.2 0-0.4 0-0.5 0 -0.3 0.1-0.7 0.1-1 0.2 -0.1 0-0.3 0.1-0.4 0.1 -0.2 0-0.3 0-0.5 0 -0.3 0.1-0.6 0.2-0.9 0.3 -0.1 0-0.3 0-0.4 0 -0.2 0-0.3 0.2-0.5 0.2 -0.4 0.1-0.8 0.1-1.2 0.2 -0.6 0.1-1.1 0.4-1.6 0.5 -0.8 0.2-1.6 0.4-2.3 0.6 -0.9 0.3-1.9 0.5-2.9 0.7 -0.6 0.1-1 0.3-1.6 0.4 -0.4 0-0.6 0.1-1 0.1 -0.6 0.1-1.3 0.2-2 0.1 -0.7 0-1.4-0.1-1.8-0.3 -0.7-0.2-1.3-0.5-1.6-1 -0.3-0.4-0.6-0.8-0.6-1.4 0-0.2 0.1-0.2 0.1-0.3 0-0.1 0-0.2 0-0.4 0.3-0.6 1.5-0.9 1.8-0.3 -0.4-0.1-0.8 0.3-0.8 0.6 0 0.3 0.3 0.7 0.6 0.8 0.2 0 0.2-0.1 0.3-0.1 0.1-0.1 0.2-0.1 0.3-0.1 0.1-0.1 0.3-0.5 0.4-0.6 0-0.1-0.1-0.5-0.1-0.6 0 0-0.1-0.1-0.1-0.1 0-0.1 0-0.2 0-0.2 -0.1-0.2-0.4-0.4-0.6-0.5 -0.4-0.2-0.7-0.1-1.1 0 -0.1 0-0.3 0.1-0.4 0.1 -0.1 0.1-0.2 0.2-0.4 0.4 -0.1 0.1-0.3 0.2-0.4 0.4 -0.3 0.4-0.4 1.1-0.3 1.7C-202.9 65.9-202.7 66.2-202.4 66.6" fill="#434343"/></svg>
