<svg xmlns="http://www.w3.org/2000/svg" width="64" height="64" viewBox="0 0 64 64"><path d="M62.6 50.6l-9.9-9.9c-2-2-5.2-1.9-7.3 0.1l-5 5c-0.3-0.2-0.6-0.4-1-0.5 -3.1-1.7-7.4-4.1-12-8.7 -4.5-4.5-6.9-8.9-8.7-12 -0.2-0.3-0.4-0.7-0.5-1l3.3-3.3 1.6-1.6c2-2 2.1-5.3 0.1-7.3L13.5 1.5C11.5-0.5 8.3-0.4 6.2 1.6L3.4 4.4 3.5 4.5C2.6 5.7 1.8 7.1 1.2 8.6c-0.5 1.4-0.9 2.8-1 4.1 -1.3 10.8 3.6 20.7 17.1 34.1 18.5 18.5 33.5 17.1 34.1 17.1 1.4-0.2 2.7-0.5 4.1-1 1.5-0.6 2.8-1.4 4-2.3l0.1 0.1 2.8-2.8C64.5 55.8 64.5 52.6 62.6 50.6L62.6 50.6zM62.6 50.6" fill="#0255A3"/></svg>
