<svg xmlns="http://www.w3.org/2000/svg" width="64" height="64" viewBox="0 0 64 64"><circle cx="32" cy="32" r="32" fill="#F50"/><path d="M10.3 32.4c-0.1 0-0.2 0.1-0.2 0.2 0 0-0.5 4.3-0.5 4.3l0.5 4.2c0 0.1 0.1 0.2 0.2 0.2 0.1 0 0.2-0.1 0.2-0.2l0.5-4.2 -0.5-4.3C10.5 32.5 10.4 32.4 10.3 32.4z" fill="#fff"/><path d="M8.5 34c-0.1 0-0.2 0.1-0.2 0.2L8 36.9l0.4 2.6c0 0.1 0.1 0.2 0.2 0.2 0.1 0 0.2-0.1 0.2-0.2l0.4-2.6 -0.4-2.7C8.7 34.1 8.6 34 8.5 34z" fill="#fff"/><path d="M12.2 31.5c-0.1 0-0.2 0.1-0.2 0.2l-0.4 5.1 0.4 4.9c0 0.1 0.1 0.2 0.2 0.2 0.1 0 0.2-0.1 0.2-0.2l0.5-4.9 -0.5-5.1C12.4 31.6 12.3 31.5 12.2 31.5z" fill="#fff"/><path d="M14.1 31.4c-0.1 0-0.3 0.1-0.3 0.3L13.4 36.9l0.4 5.1c0 0.2 0.1 0.3 0.3 0.3 0.1 0 0.3-0.1 0.3-0.3l0.5-5.1 -0.5-5.3C14.4 31.5 14.3 31.4 14.1 31.4z" fill="#fff"/><polygon points="16.3 42 16.3 42 16.3 42 " fill="#fff"/><path d="M16.3 32c0-0.2-0.2-0.3-0.3-0.3 -0.2 0-0.3 0.1-0.3 0.3l-0.4 4.9 0.4 5.1c0 0.2 0.1 0.3 0.3 0.3 0.2 0 0.3-0.1 0.3-0.3l0.5-5.1L16.3 32z" fill="#fff"/><path d="M18 28.6c-0.2 0-0.4 0.2-0.4 0.4l-0.4 7.9 0.4 5.1c0 0.2 0.2 0.4 0.4 0.4 0.2 0 0.4-0.2 0.4-0.4v0l0.4-5.1 -0.4-7.9C18.3 28.8 18.1 28.6 18 28.6z" fill="#fff"/><path d="M19.9 26.8c-0.2 0-0.4 0.2-0.4 0.4 0 0-0.4 9.7-0.4 9.7l0.4 5.1c0 0.2 0.2 0.4 0.4 0.4 0.2 0 0.4-0.2 0.4-0.4v0l0.4-5.1 -0.4-9.7C20.3 27 20.1 26.8 19.9 26.8z" fill="#fff"/><path d="M21.9 25.9c-0.2 0-0.4 0.2-0.4 0.4l-0.3 10.6 0.3 5c0 0.2 0.2 0.4 0.4 0.4 0.2 0 0.4-0.2 0.4-0.4l0 0 0.4-5L22.3 26.3C22.3 26.1 22.1 25.9 21.9 25.9z" fill="#fff"/><path d="M24.3 26c0-0.3-0.2-0.5-0.5-0.5 -0.3 0-0.5 0.2-0.5 0.5l-0.3 10.9 0.3 5c0 0.3 0.2 0.5 0.5 0.5 0.3 0 0.5-0.2 0.5-0.5l0.3-5L24.3 26z" fill="#fff"/><polygon points="24.3 41.9 24.3 41.9 24.3 41.9 " fill="#fff"/><path d="M25.8 25.7c-0.3 0-0.5 0.2-0.5 0.5L25 36.9l0.3 5c0 0.3 0.2 0.5 0.5 0.5 0.3 0 0.5-0.2 0.5-0.5v0l0.3-5L26.4 26.3C26.4 26 26.1 25.7 25.8 25.7z" fill="#fff"/><path d="M27.8 26.1c-0.3 0-0.6 0.2-0.6 0.6l-0.3 10.2 0.3 4.9c0 0.3 0.3 0.6 0.6 0.6 0.3 0 0.6-0.2 0.6-0.6v0l0.3-4.9 -0.3-10.2C28.4 26.3 28.2 26.1 27.8 26.1z" fill="#fff"/><path d="M30.2 24.2c-0.1-0.1-0.2-0.1-0.3-0.1 -0.1 0-0.2 0-0.3 0.1 -0.2 0.1-0.3 0.3-0.3 0.5l0 0.1 -0.2 12.1c0 0 0.2 4.9 0.2 4.9 0 0 0 0 0 0 0 0.1 0.1 0.3 0.1 0.4 0.1 0.1 0.3 0.2 0.5 0.2 0.2 0 0.3-0.1 0.4-0.2s0.2-0.3 0.2-0.4l0-0.5 0.2-4.4 -0.3-12.2C30.5 24.5 30.4 24.3 30.2 24.2z" fill="#fff"/><polygon points="30.5 41.8 30.5 41.8 30.5 41.8 30.5 41.8 30.5 41.8 30.5 41.8 30.5 41.8 " fill="#fff"/><path d="M32.2 23.1c-0.1-0.1-0.2-0.1-0.3-0.1 -0.2 0-0.3 0.1-0.4 0.1 -0.1 0.1-0.2 0.3-0.2 0.5l0 0.1L31 36.9l0.1 2.4 0.1 2.4c0 0.4 0.3 0.6 0.7 0.6 0.4 0 0.6-0.3 0.6-0.6v0l0 0 0.3-4.8v0l-0.3-13.3C32.5 23.4 32.4 23.2 32.2 23.1z" fill="#fff"/><path d="M50.1 30.6c-0.8 0-1.6 0.2-2.3 0.5 -0.5-5.3-4.9-9.5-10.4-9.5 -1.3 0-2.6 0.3-3.8 0.7 -0.4 0.2-0.6 0.3-0.6 0.7v18.7c0 0.4 0.3 0.6 0.6 0.7 0 0 16.4 0 16.4 0 3.3 0 5.9-2.6 5.9-5.9C56 33.3 53.4 30.6 50.1 30.6z" fill="#fff"/></svg>
