<svg xmlns="http://www.w3.org/2000/svg" width="64" height="64" viewBox="0 0 64 64"><path d="M15.9 27.1c-4.3 0-7.7 3.5-7.7 7.7 0 4.3 3.5 7.7 7.7 7.7 4.3 0 7.7-3.5 7.7-7.7C23.6 30.5 20.2 27.1 15.9 27.1M15.9 40.2c-3 0-5.4-2.4-5.4-5.4s2.4-5.4 5.4-5.4 5.4 2.4 5.4 5.4C21.2 37.8 18.8 40.2 15.9 40.2M64 19.1H53.4C48 15.4 40.6 13.2 32.1 13.2S15.7 15.5 10.2 19.1H0c1.7 2 2.9 4.6 3.2 6.4 -1.9 2.6-3 5.9-3 9.4C0.2 43.7 7.3 50.8 16.1 50.8c5 0 9.4-2.3 12.4-5.9 1.2 1.4 3.2 4.2 3.6 5 0 0 2.3-3.4 3.6-5C38.6 48.5 43.1 50.8 48.1 50.8 56.9 50.8 64 43.7 64 34.9c0-3.5-1.1-6.7-3-9.4C61.1 23.7 62.3 21.1 64 19.1M16.1 47.7C9 47.7 3.3 42 3.3 34.9 3.3 27.8 9 22.1 16.1 22.1 23.2 22.1 28.9 27.8 28.9 34.9 28.9 41.9 23.2 47.7 16.1 47.7M16.1 18.9c4.6-2 10.2-3.1 15.9-3.1s10.9 1.1 15.4 3.1C38.8 19.2 32 26.2 32 34.8 32 26.1 24.9 18.9 16.1 18.9M47.9 47.7C40.8 47.7 35.1 42 35.1 34.9c0-7.1 5.7-12.8 12.8-12.8 7.1 0 12.8 5.7 12.8 12.8C60.8 41.9 55 47.7 47.9 47.7M47.9 27.1c-4.3 0-7.7 3.5-7.7 7.7 0 4.3 3.5 7.7 7.7 7.7 4.3 0 7.7-3.5 7.7-7.7C55.7 30.5 52.2 27.1 47.9 27.1M47.9 40.1c-3 0-5.4-2.4-5.4-5.4s2.4-5.4 5.4-5.4 5.4 2.4 5.4 5.4S50.9 40.1 47.9 40.1" fill="#010101"/></svg>
