<svg xmlns="http://www.w3.org/2000/svg" width="64" height="64" viewBox="0 0 64 64"><circle cx="32" cy="32" r="32" fill="#1AB7EB"/><path d="M56 23.8c-0.2 4.7-3.5 11.1-9.8 19.2C39.7 51.6 34.1 55.8 29.6 55.8c-2.8 0-5.2-2.6-7.1-7.8 -1.3-4.7-2.6-9.5-3.9-14.2 -1.4-5.2-3-7.8-4.6-7.8 -0.4 0-1.6 0.8-3.8 2.3L8 25.4c2.4-2.1 4.7-4.2 7-6.3 3.2-2.7 5.5-4.2 7.1-4.3 3.7-0.4 6 2.2 6.9 7.7 0.9 5.9 1.6 9.6 1.9 11 1.1 4.9 2.3 7.4 3.6 7.4 1 0 2.5-1.6 4.5-4.8 2-3.2 3.1-5.6 3.2-7.3 0.3-2.7-0.8-4.1-3.2-4.1 -1.1 0-2.3 0.3-3.6 0.8 2.4-7.7 6.9-11.5 13.5-11.3C53.9 14.4 56.3 17.6 56 23.8" fill="#FFF"/></svg>